#!OML:ASF E:\Style4\Style4.ASF
:FULLY-SPECIFIED
:DEGREES
3891
root -0.00912321 17.4158 -2.85099 5.2369 4.04514 2.83055
lowerback 18.175 2.7911 -0.625527
upperback 10.315 3.57419 0.411455
thorax 0.827562 1.76563 0.179939
lowerneck 2.7643 -2.86497 -3.76116
upperneck 26.3311 -3.86255 1.44385
head 7.7652 -1.97865 0.91894
rclavicle 2.3059e-014 -1.27222e-014
rhumerus 57.9322 -6.86202 -75.0625
rradius 115.588
rwrist -47.6536
rhand -15.6924 27.1165
rfingers 7.12502
rthumb 10.4969 -2.60144
lclavicle 2.3059e-014 -1.27222e-014
lhumerus 58.7017 6.80762 79.0384
lradius 117.712
lwrist 62.8856
lhand -8.42534 20.9507
lfingers 7.12502
lthumb 17.4995 50.183
rfemur -29.7639 -2.90653 17.2767
rtibia 44.324
rfoot -18.5241 -15.3096
rtoes -6.71217
lfemur -28.8304 -1.36644 -22.2595
ltibia 40.5645
lfoot -16.7662 7.42567
ltoes -11.8866
3892
root -0.00687206 17.4566 -2.86986 5.51543 4.03601 2.77005
lowerback 18.1276 2.77326 -0.562032
upperback 10.2438 3.55978 0.3906
thorax 0.779934 1.76139 0.124867
lowerneck 2.54824 -2.89868 -3.56385
upperneck 26.245 -3.86957 1.24111
head 7.76513 -1.9796 0.814222
rclavicle -2.26615e-014 -7.95139e-015
rhumerus 57.5117 -6.49202 -75.2082
rradius 112.896
rwrist -48.1767
rhand -15.7589 26.5933
rfingers 7.12502
rthumb 10.4327 -3.12788
lclavicle -2.26615e-014 -7.95139e-015
lhumerus 58.351 6.1937 78.9771
lradius 115.131
lwrist 62.8969
lhand -7.74312 21.5607
lfingers 7.12502
lthumb 18.156 50.7333
rfemur -29.6721 -2.78209 17.3271
rtibia 43.4491
rfoot -18.0586 -15.4291
rtoes -6.83737
lfemur -28.6953 -1.39602 -22.187
ltibia 39.638
lfoot -16.2739 7.4695
ltoes -11.6042
3893
root -0.00350527 17.4982 -2.88644 5.76603 3.98254 2.78605
lowerback 18.0728 2.77388 -0.568591
upperback 10.1843 3.55875 0.355845
thorax 0.745564 1.76128 0.0929025
lowerneck 2.44014 -2.93761 -3.46324
upperneck 26.0982 -3.89928 1.1182
head 7.73002 -1.9943 0.753167
rclavicle 1.82882e-014 -2.14687e-014
rhumerus 57.0745 -6.14907 -75.3526
rradius 110.172
rwrist -48.6165
rhand -15.8481 25.8035
rfingers 7.12502
rthumb 10.3467 -3.92194
lclavicle 1.82882e-014 -2.14687e-014
lhumerus 57.8796 5.59826 78.851
lradius 112.569
lwrist 62.8795
lhand -7.51483 22.1174
lfingers 7.12502
lthumb 18.3756 51.2694
rfemur -29.5285 -2.65547 17.2887
rtibia 42.5861
rfoot -17.6214 -15.4646
rtoes -6.72596
lfemur -28.5024 -1.45469 -22.1996
ltibia 38.7158
lfoot -15.859 7.59147
ltoes -11.4134
3894
root -0.00140965 17.5384 -2.9023 5.98704 3.90835 2.84449
lowerback 18.0263 2.7803 -0.654474
upperback 10.1578 3.55382 0.342423
thorax 0.736555 1.75532 0.129067
lowerneck 2.23904 -2.94499 -3.66543
upperneck 26.0663 -3.93358 1.2971
head 7.76321 -2.01453 0.841558
rclavicle -5.56597e-015 -2.46493e-014
rhumerus 56.6941 -5.77122 -75.4262
rradius 107.287
rwrist -48.9183
rhand -15.9403 25.0779
rfingers 7.12502
rthumb 10.2577 -4.65201
lclavicle -5.56597e-015 -2.46493e-014
lhumerus 57.4086 5.10649 78.7744
lradius 109.996
lwrist 62.5827
lhand -7.25781 22.6994
lfingers 7.12502
lthumb 18.6229 51.828
rfemur -29.3655 -2.4771 17.2023
rtibia 41.7569
rfoot -17.1658 -15.5678
rtoes -6.85555
lfemur -28.2869 -1.47812 -22.2639
ltibia 37.8187
lfoot -15.4103 7.76595
ltoes -11.7361
3895
root -0.0016604 17.5753 -2.92087 6.22123 3.87871 2.76962
lowerback 17.9645 2.7653 -0.624705
upperback 10.1274 3.539 0.368747
thorax 0.735407 1.74799 0.144486
lowerneck 2.10021 -2.94989 -3.82979
upperneck 25.9298 -3.95534 1.42061
head 7.74783 -2.03006 0.907139
rclavicle 2.8625e-014 -7.95139e-015
rhumerus 56.3908 -5.37993 -75.5056
rradius 104.355
rwrist -49.152
rhand -16.1453 24.143
rfingers 7.12502
rthumb 10.06 -5.59655
lclavicle 2.8625e-014 -7.95139e-015
lhumerus 56.9368 4.58526 78.6962
lradius 107.301
lwrist 61.8774
lhand -7.02409 23.081
lfingers 7.12502
lthumb 18.8476 52.1879
rfemur -29.2544 -2.25148 17.2686
rtibia 40.9559
rfoot -16.7084 -15.7817
rtoes -7.28765
lfemur -28.1461 -1.5059 -22.1605
ltibia 36.9629
lfoot -14.9498 7.84373
ltoes -11.5894
3896
root -0.000225338 17.6105 -2.93935 6.4978 3.89651 2.73855
lowerback 17.8687 2.74085 -0.641034
upperback 10.0583 3.50564 0.391083
thorax 0.707639 1.72978 0.18496
lowerneck 2.14058 -2.96307 -3.84384
upperneck 25.5878 -3.96081 1.35729
head 7.62426 -2.03988 0.889627
rclavicle -1.19271e-014 1.90833e-014
rhumerus 56.0969 -4.98663 -75.4964
rradius 101.402
rwrist -49.4565
rhand -16.6587 23.0651
rfingers 7.12502
rthumb 9.56462 -6.69779
lclavicle -1.19271e-014 1.90833e-014
lhumerus 56.4993 4.03661 78.5252
lradius 104.496
lwrist 60.865
lhand -7.49024 23.7806
lfingers 7.12502
lthumb 18.3993 52.9305
rfemur -29.1963 -2.08541 17.2757
rtibia 40.1941
rfoot -16.3317 -15.9246
rtoes -7.30178
lfemur -28.0655 -1.59476 -22.1122
ltibia 36.1456
lfoot -14.5605 7.95266
ltoes -11.3142
3897
root 0.0025537 17.6398 -2.95649 6.70322 3.90947 2.7585
lowerback 17.9536 2.70173 -0.70976
upperback 9.93963 3.4432 0.416196
thorax 0.53121 1.69506 0.252496
lowerneck 2.10108 -2.94832 -3.94648
upperneck 25.4095 -3.92136 1.29082
head 7.5712 -2.03625 0.887164
rclavicle -4.77083e-015 -9.54166e-015
rhumerus 55.6969 -4.44989 -75.5232
rradius 98.3388
rwrist -49.6493
rhand -17.1834 22.3646
rfingers 7.12502
rthumb 9.05837 -7.42091
lclavicle -4.77083e-015 -9.54166e-015
lhumerus 55.9281 3.52895 78.2601
lradius 101.747
lwrist 59.6197
lhand -8.10072 24.9308
lfingers 7.12502
lthumb 17.8119 54.1351
rfemur -29.0714 -2.00641 17.2261
rtibia 39.4625
rfoot -15.9731 -15.9715
rtoes -7.10067
lfemur -27.9114 -1.70489 -22.1206
ltibia 35.3795
lfoot -14.2383 8.0386
ltoes -10.7784
3898
root 0.0059258 17.6684 -2.97167 6.88753 3.87751 2.74472
lowerback 18.1172 2.66632 -0.730575
upperback 9.77322 3.39077 0.419803
thorax 0.26742 1.66791 0.264147
lowerneck 2.08157 -2.94115 -3.94776
upperneck 25.2676 -3.88541 1.16086
head 7.52354 -2.03026 0.846625
rclavicle -3.97569e-015 1.59028e-015
rhumerus 55.1922 -3.81473 -75.6692
rradius 95.2032
rwrist -49.6031
rhand -17.6184 21.691
rfingers 7.12502
rthumb 8.63861 -8.11228
lclavicle -3.97569e-015 1.59028e-015
lhumerus 55.1785 3.05448 77.9999
lradius 98.8775
lwrist 58.4958
lhand -7.83453 25.1247
lfingers 7.12502
lthumb 18.068 54.3055
rfemur -28.9434 -1.87476 17.2105
rtibia 38.7768
rfoot -15.6394 -16.0349
rtoes -7.15277
lfemur -27.7408 -1.77593 -22.0959
ltibia 34.6412
lfoot -13.9335 8.1256
ltoes -10.0627
